<svg width="128" height="64" viewBox="0 0 128 64" fill="none" xmlns="http://www.w3.org/2000/svg">
<path d="M11.5 41L15.2177 47.383L22.4371 48.9463L17.5154 54.4545L18.2595 61.8037L11.5 58.825L4.74047 61.8037L5.48457 54.4545L0.56285 48.9463L7.78226 47.383L11.5 41Z" fill="#FF6955"/>
<path d="M38.5 41L42.2177 47.383L49.4371 48.9463L44.5154 54.4545L45.2595 61.8037L38.5 58.825L31.7405 61.8037L32.4846 54.4545L27.5628 48.9463L34.7823 47.383L38.5 41Z" fill="#FF6955"/>
<path d="M65 41L68.8794 47.383L76.4127 48.9463L71.277 54.4545L72.0534 61.8037L65 58.825L57.9466 61.8037L58.723 54.4545L53.5873 48.9463L61.1206 47.383L65 41Z" fill="#FF6955"/>
<path d="M89.5 41L93.2177 47.383L100.437 48.9463L95.5154 54.4545L96.2595 61.8037L89.5 58.825L82.7405 61.8037L83.4846 54.4545L78.5628 48.9463L85.7823 47.383L89.5 41Z" fill="#FF6955"/>
<path d="M116.5 41L120.218 47.383L127.437 48.9463L122.515 54.4545L123.26 61.8037L116.5 58.825L109.74 61.8037L110.485 54.4545L105.563 48.9463L112.782 47.383L116.5 41Z" fill="#FF6955"/>
<path fill-rule="evenodd" clip-rule="evenodd" d="M11.5717 0H10.7924C8.58696 0.132848 6.42562 0.856131 4.64656 2.16985C2.79399 3.49833 1.3531 5.40248 0.603249 7.55757C-0.220117 9.91931 -0.205414 12.5763 0.676764 14.9233C1.61775 17.4769 3.52914 19.6467 5.92572 20.9309C7.92532 22.0232 10.2484 22.4513 12.4979 22.2299C14.821 22.038 17.1 21.0638 18.7467 19.4106C21.2168 17.0783 21.9814 13.4029 21.452 10.1407H11.1747V13.1815C12.8018 13.1913 14.4289 13.188 16.0561 13.1848C16.8696 13.1831 17.6832 13.1815 18.4968 13.1815C18.3203 14.6871 17.7763 16.237 16.6001 17.2555C15.1004 18.702 12.9537 19.3368 10.8953 19.2187C8.68988 19.1449 6.55795 18.0821 5.16117 16.3846C3.70557 14.6428 3.07335 12.2811 3.38211 10.0374C3.66147 7.76423 4.95533 5.63866 6.86671 4.38398C8.61636 3.18835 10.8659 2.78981 12.9537 3.23263C14.3652 3.49833 15.6591 4.25113 16.7324 5.22535C17.1271 4.81226 17.5313 4.4088 17.937 4.00396L17.937 4.00394L17.937 4.00392L17.9371 4.00389L17.9371 4.00384C18.2417 3.69989 18.547 3.39517 18.8496 3.08502C16.9382 1.15135 14.277 0.0590435 11.5717 0ZM73.6127 0.674805H70.236C70.236 3.00113 70.2377 5.32746 70.2395 7.65325V7.66246V7.66408V7.66571V7.66733C70.243 12.3126 70.2465 16.9557 70.236 21.5922C71.0767 21.6142 71.9263 21.6115 72.7715 21.6087C73.0526 21.6078 73.3331 21.6069 73.6127 21.6069V0.674805ZM28.6709 8.2339C30.5926 7.86908 32.6744 8.27768 34.2612 9.43052C35.7025 10.452 36.707 12.0572 37.0127 13.8084C37.4058 15.8368 36.9108 18.0549 35.6006 19.6601C34.1884 21.455 31.8737 22.4182 29.6172 22.2722C27.5499 22.1555 25.5409 21.1194 24.3181 19.4266C22.935 17.5587 22.6002 14.9904 23.3572 12.8015C24.1142 10.452 26.2543 8.65709 28.6709 8.2339ZM29.1077 11.0065C28.3215 11.2108 27.5936 11.6632 27.0695 12.3053C25.6574 13.9981 25.7447 16.7561 27.3025 18.3322C28.1905 19.2369 29.5298 19.6601 30.7673 19.412C31.9174 19.2077 32.9219 18.4343 33.4751 17.4128C34.4359 15.6763 34.1593 13.283 32.689 11.9259C31.7427 11.0503 30.3597 10.6855 29.1077 11.0065ZM51.0231 9.97232C49.2985 8.42482 46.7801 7.81166 44.4754 8.23503C41.9876 8.6438 39.7898 10.3811 38.9503 12.6586C38.1109 14.8922 38.4314 17.52 39.9119 19.4325C41.2245 21.1698 43.4071 22.2209 45.6202 22.2793C47.9401 22.3815 50.2905 21.418 51.7405 19.6661C54.1367 16.8923 53.8315 12.3812 51.0231 9.97232ZM42.7966 12.2936C43.346 11.6658 44.1091 11.2132 44.9333 11.0089C46.2307 10.6877 47.6806 11.0381 48.6727 11.914C50.2295 13.2717 50.5195 15.666 49.5274 17.4179C48.9474 18.4398 47.879 19.1989 46.6885 19.4179C45.3454 19.6807 43.8955 19.2135 42.9644 18.2646C41.3924 16.6733 41.3313 13.9579 42.7966 12.2936ZM57.5967 9.10072C59.3478 8.02971 61.6776 7.73221 63.5657 8.65447C64.1596 8.90734 64.6468 9.33872 65.1189 9.7701C65.1265 9.56929 65.1265 9.36475 65.1265 9.15836C65.1265 8.95197 65.1265 8.74372 65.1341 8.53546C65.6442 8.5429 66.1543 8.5429 66.6663 8.5429C67.1783 8.5429 67.6922 8.5429 68.21 8.55034V21.6702C68.1947 23.6486 67.677 25.746 66.2152 27.1889C64.6164 28.7805 62.1648 29.2714 59.9569 28.9442C57.5967 28.602 55.5411 26.9211 54.6274 24.794C55.1948 24.5261 55.7798 24.2926 56.3679 24.0579L56.368 24.0579L56.368 24.0579C56.7268 23.9147 57.0867 23.771 57.4444 23.6189C57.9774 24.8386 59.0585 25.8799 60.4137 26.1179C61.7689 26.3559 63.3373 26.0286 64.2205 24.9279C65.1646 23.7974 65.1646 22.2504 65.1189 20.867C64.4184 21.5363 63.6114 22.1313 62.6369 22.3545C60.5203 22.9346 58.1906 22.2206 56.5613 20.8223C54.9168 19.4241 53.9422 17.2672 54.0336 15.1252C54.0793 12.7005 55.4802 10.3651 57.5967 9.10072ZM60.7487 11.0047C59.8199 11.1535 58.9519 11.6592 58.3581 12.3584C56.9267 14.0244 56.9267 16.687 58.3733 18.3233C59.1956 19.2902 60.5203 19.8257 61.7994 19.6918C63.0023 19.5728 64.1139 18.8291 64.7077 17.8027C65.7127 16.0623 65.5452 13.6971 64.19 12.1799C63.3525 11.2427 62.0126 10.7816 60.7487 11.0047ZM84.162 8.50713C81.8421 7.64632 79.0552 8.20074 77.2475 9.83481C74.4305 12.3589 74.1894 17.0568 76.6901 19.8581C78.2116 21.6381 80.7122 22.5135 83.0623 22.2363C85.1863 22.0466 87.1598 20.8502 88.3348 19.1432C87.9205 18.8733 87.5062 18.607 87.092 18.3408C86.6777 18.0745 86.2634 17.8082 85.8492 17.5383C85.5178 17.9468 85.1713 18.3699 84.7344 18.6909C83.6347 19.5371 82.068 19.6976 80.7574 19.2453C79.8235 18.939 79.1305 18.1803 78.6786 17.3486C80.313 16.6921 81.9438 16.0392 83.5745 15.3863C85.2052 14.7334 86.8359 14.0805 88.4704 13.4239C87.7623 11.3376 86.3614 9.30958 84.162 8.50713ZM78.1513 14.9851C78.1363 14.1243 78.3472 13.2489 78.8594 12.534C79.6578 11.3959 81.1491 10.6519 82.5802 10.8999C83.469 11.0312 84.3427 11.5273 84.7043 12.3443C82.52 13.2343 80.3356 14.1097 78.1513 14.9851Z" fill="white"/>
</svg>
