<svg width="128" height="75" viewBox="0 0 128 75" fill="none" xmlns="http://www.w3.org/2000/svg">
<path d="M0 52.0059H23.0625V74.9936H0V52.0059ZM24.9844 52.0059H48.0469V74.9936H24.9844V52.0059ZM49.9688 52.0059H73.0312V74.9936H49.9688V52.0059ZM74.9531 52.0059H98.0156V74.9936H74.9531V52.0059ZM99.9375 52.0059H123V74.9936H99.9375V52.0059Z" fill="#FF6955"/>
<path d="M11.5313 67.4984L15.0388 66.6124L16.5042 71.1141L11.5313 67.4984ZM19.6032 61.6796H13.4292L11.5313 55.8848L9.6335 61.6796H3.45947L8.45635 65.2714L6.5585 71.0662L11.5554 67.4744L14.6304 65.2714L19.6032 61.6796ZM36.5157 67.4984L40.0232 66.6124L41.4886 71.1141L36.5157 67.4984ZM44.5876 61.6796H38.4136L36.5157 55.8848L34.6179 61.6796H28.4439L33.4407 65.2714L31.5429 71.0662L36.5398 67.4744L39.6148 65.2714L44.5876 61.6796ZM61.5001 67.4984L65.0075 66.6124L66.473 71.1141L61.5001 67.4984ZM69.572 61.6796H63.398L61.5001 55.8848L59.6023 61.6796H53.4282L58.4251 65.2714L56.5273 71.0662L61.5241 67.4744L64.5991 65.2714L69.572 61.6796ZM86.4845 67.4984L89.9919 66.6124L91.4573 71.1141L86.4845 67.4984ZM94.5564 61.6796H88.3823L86.4845 55.8848L84.5866 61.6796H78.4126L83.4095 65.2714L81.5116 71.0662L86.5085 67.4744L89.5835 65.2714L94.5564 61.6796ZM111.469 67.4984L114.976 66.6124L116.442 71.1141L111.469 67.4984ZM119.541 61.6796H113.367L111.469 55.8848L109.571 61.6796H103.397L108.394 65.2714L106.496 71.0662L111.493 67.4744L114.568 65.2714L119.541 61.6796Z" fill="white"/>
<path d="M33.3276 11.1025L46.3201 11.1025L46.3201 13.4305L41.2044 13.4305L41.2044 26.5535L38.4004 26.5535L38.4004 13.4305L33.3062 13.4305L33.3276 11.1025ZM45.7636 15.367L48.1609 15.367L48.1609 17.5301L48.2037 17.5301C48.2894 17.2211 48.4392 16.9327 48.6532 16.6443C48.8673 16.3559 49.1241 16.088 49.4452 15.8614C49.7449 15.6142 50.0873 15.4288 50.4726 15.2846C50.8365 15.1404 51.2218 15.058 51.6071 15.058C51.9067 15.058 52.1208 15.0786 52.2278 15.0786C52.3348 15.0992 52.4633 15.1198 52.5703 15.1198L52.5703 17.4889C52.399 17.4477 52.2064 17.4271 52.0138 17.4065C51.8211 17.3859 51.6499 17.3653 51.4572 17.3653C51.0291 17.3653 50.6225 17.4477 50.2372 17.6125C49.8519 17.7774 49.5308 18.0246 49.2312 18.3336C48.9529 18.6632 48.7175 19.0546 48.5462 19.5285C48.375 20.0023 48.2894 20.5585 48.2894 21.1766L48.2894 26.4917L45.7208 26.4917L45.7636 15.367ZM64.3428 26.5535L61.8171 26.5535L61.8171 24.9878L61.7743 24.9878C61.4532 25.5647 60.9823 25.9973 60.3615 26.3475C59.7408 26.6977 59.0987 26.8625 58.4565 26.8625C56.9368 26.8625 55.8238 26.5123 55.1388 25.7707C54.4539 25.0496 54.1114 23.9371 54.1114 22.4745L54.1114 15.367L56.68 15.367L56.68 22.2272C56.68 23.2161 56.8726 23.9165 57.2793 24.308C57.6646 24.72 58.2211 24.926 58.9274 24.926C59.4626 24.926 59.9121 24.8436 60.2759 24.6788C60.6398 24.514 60.9395 24.308 61.1535 24.0402C61.389 23.7723 61.5388 23.4427 61.6458 23.0719C61.7528 22.7011 61.7957 22.289 61.7957 21.8564L61.7957 15.367L64.3642 15.367L64.3642 26.5535L64.3428 26.5535ZM68.7093 22.9689C68.795 23.6899 69.0732 24.1844 69.5655 24.4934C70.0578 24.7818 70.6572 24.926 71.3421 24.926C71.5775 24.926 71.8558 24.9054 72.1555 24.8642C72.4551 24.823 72.7548 24.7612 73.0117 24.6582C73.2899 24.5552 73.504 24.411 73.6752 24.205C73.8464 23.999 73.9321 23.7517 73.9106 23.4427C73.8892 23.1337 73.7822 22.8659 73.5468 22.6599C73.3113 22.4539 73.0331 22.3096 72.6906 22.1654C72.3481 22.0418 71.9414 21.9388 71.4919 21.8564C71.0424 21.774 70.5929 21.671 70.122 21.568C69.6511 21.465 69.1802 21.3414 68.7307 21.1972C68.2812 21.053 67.896 20.8676 67.5321 20.5997C67.1896 20.3525 66.8899 20.0435 66.6973 19.6521C66.4833 19.2607 66.3762 18.8074 66.3762 18.2306C66.3762 17.6125 66.5261 17.1181 66.8471 16.7061C67.1468 16.2941 67.5535 15.9644 68.0244 15.7172C68.4953 15.47 69.0304 15.2846 69.6083 15.1816C70.1863 15.0786 70.7428 15.0374 71.2565 15.0374C71.8558 15.0374 72.4337 15.0992 72.9688 15.2228C73.504 15.3464 74.0177 15.5318 74.4458 15.8202C74.8953 16.0881 75.2591 16.4589 75.5374 16.8915C75.8371 17.3241 76.0083 17.8598 76.0939 18.4778L73.4183 18.4778C73.2899 17.8804 73.0117 17.4889 72.5836 17.2829C72.1341 17.0769 71.6418 16.9739 71.0638 16.9739C70.8926 16.9739 70.6572 16.9945 70.4217 17.0151C70.1648 17.0563 69.9508 17.0975 69.7154 17.1799C69.5013 17.2623 69.3087 17.3859 69.1588 17.5301C69.009 17.6744 68.9234 17.8804 68.9234 18.1276C68.9234 18.4366 69.0304 18.6632 69.2445 18.8486C69.4585 19.034 69.7368 19.1782 70.1006 19.3225C70.4431 19.4461 70.8498 19.5491 71.2993 19.6315C71.7488 19.7139 72.2197 19.8169 72.6906 19.9199C73.1615 20.0229 73.611 20.1465 74.0605 20.2907C74.51 20.4349 74.9167 20.6203 75.2591 20.8882C75.6016 21.1354 75.9013 21.4444 76.1153 21.8152C76.3294 22.186 76.4364 22.6599 76.4364 23.1955C76.4364 23.8547 76.2866 24.411 75.9655 24.8848C75.6444 25.338 75.2377 25.7295 74.7454 26.0179C74.2531 26.3063 73.6752 26.5123 73.0759 26.6565C72.4551 26.7801 71.8558 26.8625 71.2565 26.8625C70.5287 26.8625 69.8438 26.7801 69.223 26.6153C68.6023 26.4505 68.0458 26.2033 67.5963 25.8943C67.1468 25.5647 66.7829 25.1732 66.5261 24.6788C66.2692 24.205 66.1194 23.6281 66.098 22.9483L68.6879 22.9483L68.6879 22.9689L68.7093 22.9689ZM77.1641 15.367L79.112 15.367L79.112 11.9884L81.6805 11.9884L81.6805 15.3464L83.9922 15.3464L83.9922 17.1799L81.6805 17.1799L81.6805 23.1543C81.6805 23.4221 81.7019 23.6281 81.7233 23.8341C81.7447 24.0196 81.8089 24.1844 81.8732 24.308C81.9588 24.4316 82.0872 24.5346 82.237 24.5964C82.4083 24.6582 82.6223 24.6994 82.922 24.6994C83.0932 24.6994 83.2859 24.6994 83.4571 24.6788C83.6283 24.6582 83.821 24.6376 83.9922 24.5964L83.9922 26.5123C83.714 26.5535 83.4357 26.5741 83.1574 26.5947C82.8792 26.6359 82.6223 26.6359 82.3227 26.6359C81.6377 26.6359 81.1026 26.5741 80.6959 26.4505C80.2892 26.3269 79.9681 26.1415 79.7327 25.9149C79.4972 25.6677 79.3474 25.3792 79.2618 25.029C79.1762 24.6788 79.1334 24.2462 79.112 23.7929L79.112 17.2005L77.1641 17.2005L77.1641 15.3258L77.1641 15.367ZM85.7902 15.367L88.2089 15.367L88.2089 16.8915L88.2517 16.8915C88.6156 16.2323 89.1079 15.779 89.75 15.4906C90.3922 15.2022 91.0771 15.058 91.8477 15.058C92.7681 15.058 93.5601 15.2022 94.245 15.5318C94.93 15.8408 95.4865 16.2529 95.936 16.8091C96.3855 17.3447 96.7279 17.9834 96.942 18.7044C97.156 19.4255 97.2845 20.2083 97.2845 21.0118C97.2845 21.774 97.1774 22.4951 96.9848 23.1955C96.7708 23.8959 96.4711 24.5346 96.0644 25.0702C95.6577 25.6059 95.144 26.0385 94.5019 26.3681C93.8597 26.6977 93.132 26.8625 92.2758 26.8625C91.9119 26.8625 91.5266 26.8213 91.1627 26.7595C90.7989 26.6977 90.435 26.5947 90.0925 26.4505C89.75 26.3063 89.429 26.1209 89.1507 25.8943C88.8511 25.6677 88.6156 25.3998 88.423 25.1114L88.3802 25.1114L88.3801 30.6944L85.8116 30.6944L85.8116 15.367L85.7902 15.367ZM94.7587 20.9706C94.7587 20.4761 94.6945 19.9817 94.5447 19.5079C94.4162 19.034 94.2022 18.622 93.9239 18.2512C93.6457 17.8804 93.3032 17.592 92.9179 17.3653C92.5112 17.1387 92.0403 17.0357 91.5266 17.0357C90.4564 17.0357 89.643 17.3859 89.0865 18.107C88.5514 18.828 88.2731 19.7963 88.2731 20.9912C88.2731 21.568 88.3373 22.083 88.4872 22.5569C88.637 23.0307 88.8296 23.4427 89.1293 23.7929C89.4076 24.1432 89.75 24.411 90.1567 24.617C90.5634 24.823 91.0129 24.926 91.548 24.926C92.1474 24.926 92.6183 24.8024 93.0249 24.5758C93.4316 24.3492 93.7527 24.0402 94.031 23.6899C94.2878 23.3191 94.4805 22.9071 94.5875 22.4333C94.6945 21.9388 94.7587 21.465 94.7587 20.9706V20.9706ZM99.2751 11.1025L101.844 11.1025L101.844 13.4305L99.2751 13.4305L99.2751 11.1025ZM99.2751 15.367L101.844 15.367L101.844 26.5535L99.2751 26.5535L99.2751 15.367ZM104.134 11.1025L106.702 11.1025L106.702 26.5535L104.134 26.5535L104.134 11.1025ZM114.537 26.8625C113.616 26.8625 112.781 26.7183 112.054 26.4093C111.326 26.1003 110.727 25.7089 110.213 25.1938C109.721 24.6788 109.335 24.0402 109.078 23.3191C108.822 22.5981 108.672 21.7946 108.672 20.95C108.672 20.1053 108.8 19.3225 109.078 18.6014C109.335 17.8804 109.721 17.2623 110.213 16.7267C110.705 16.2117 111.326 15.7996 112.054 15.5112C112.781 15.2228 113.616 15.058 114.537 15.058C115.457 15.058 116.292 15.2022 117.019 15.5112C117.747 15.7996 118.347 16.2117 118.86 16.7267C119.353 17.2417 119.738 17.8804 119.995 18.6014C120.252 19.3225 120.401 20.1053 120.401 20.95C120.401 21.8152 120.273 22.5981 119.995 23.3191C119.716 24.0402 119.353 24.6582 118.86 25.1938C118.368 25.7089 117.747 26.1209 117.019 26.4093C116.292 26.6977 115.478 26.8625 114.537 26.8625ZM114.537 24.9054C115.093 24.9054 115.607 24.7818 116.013 24.5552C116.442 24.3286 116.763 24.0196 117.041 23.6487C117.319 23.2779 117.512 22.8453 117.64 22.3921C117.769 21.9182 117.833 21.4444 117.833 20.95C117.833 20.4761 117.769 20.0023 117.64 19.5285C117.512 19.0546 117.319 18.6426 117.041 18.2718C116.763 17.901 116.42 17.6126 116.013 17.3859C115.585 17.1593 115.093 17.0357 114.537 17.0357C113.98 17.0357 113.466 17.1593 113.06 17.3859C112.632 17.6126 112.31 17.9216 112.032 18.2718C111.754 18.6426 111.561 19.0546 111.433 19.5285C111.304 20.0023 111.24 20.4761 111.24 20.95C111.24 21.4444 111.304 21.9182 111.433 22.3921C111.561 22.8659 111.754 23.2779 112.032 23.6487C112.31 24.0196 112.653 24.3286 113.06 24.5552C113.488 24.8024 113.98 24.9054 114.537 24.9054ZM121.172 15.367L123.12 15.367L123.12 11.9884L125.688 11.9884L125.688 15.3464L128 15.3464L128 17.1799L125.688 17.1799L125.688 23.1543C125.688 23.4221 125.71 23.6281 125.731 23.8341C125.753 24.0196 125.817 24.1844 125.881 24.308C125.967 24.4316 126.095 24.5346 126.245 24.5964C126.416 24.6582 126.63 24.6994 126.93 24.6994C127.101 24.6994 127.294 24.6994 127.465 24.6788C127.636 24.6582 127.829 24.6376 128 24.5964L128 26.5123C127.722 26.5535 127.444 26.5741 127.165 26.5947C126.887 26.6359 126.63 26.6359 126.33 26.6359C125.646 26.6359 125.11 26.5741 124.704 26.4505C124.297 26.3269 123.976 26.1415 123.741 25.9149C123.505 25.6677 123.355 25.3792 123.27 25.029C123.184 24.6788 123.141 24.2462 123.12 23.7929L123.12 17.2005L121.172 17.2005L121.172 15.3258L121.172 15.367Z" fill="white"/>
<path d="M30.6939 10.9806L18.9674 10.9806L15.3576 1.34261e-06L11.7265 10.9806L-9.58116e-07 10.9596L9.4837 17.7541L5.85255 28.7347L15.3363 21.9402L24.82 28.7347L21.2102 17.7541L30.6939 10.9806Z" fill="white"/>
<path d="M22.2042 19.9563L21.3292 17.6328L15.0205 21.5512L22.2042 19.9563Z" fill="white"/>
</svg>
